<?xml version="1.0" encoding="utf-8"?>
<!-- Generator: Adobe Illustrator 25.3.1, SVG Export Plug-In . SVG Version: 6.00 Build 0)  -->
<svg version="1.1" id="Слой_1" xmlns="http://www.w3.org/2000/svg" xmlns:xlink="http://www.w3.org/1999/xlink" x="0px" y="0px"
	 viewBox="0 0 898.93 791.16" style="enable-background:new 0 0 898.93 791.16;" xml:space="preserve">
<style type="text/css">
	.st0{fill:url(#SVGID_1_);}
	.st1{fill:url(#SVGID_2_);}
	.st2{fill:url(#SVGID_3_);}
	.st3{fill:url(#SVGID_4_);}
	.st4{fill:url(#SVGID_5_);}
</style>
<g>
	<linearGradient id="SVGID_1_" gradientUnits="userSpaceOnUse" x1="561.5021" y1="-176.3658" x2="1013.4625" y2="555.0402">
		<stop  offset="0" style="stop-color:#2666C9"/>
		<stop  offset="0.9947" style="stop-color:#1B407C"/>
	</linearGradient>
	<path class="st0" d="M898.27,369.48c0.15-0.21,0.3-0.43,0.45-0.64c0.03-0.07,0.06-0.14,0.09-0.2c-0.05,0.04-0.1,0.08-0.16,0.12
		C898.52,369,898.4,369.24,898.27,369.48z"/>
	<linearGradient id="SVGID_2_" gradientUnits="userSpaceOnUse" x1="233.4792" y1="26.3306" x2="685.4396" y2="757.7365">
		<stop  offset="0" style="stop-color:#2666C9"/>
		<stop  offset="0.9947" style="stop-color:#1B407C"/>
	</linearGradient>
	<path class="st1" d="M873.15,404.95c-7.58,8.34-13.19,18.37-22.46,26.89c0-3.41-0.04-5.51,0.01-7.61c0.2-8.62,0.69-17.24,0.6-25.86
		c-0.22-20.98-2.42-41.8-6.14-62.44c-5.28-29.33-13.75-57.73-25.88-84.97c-3.21-7.21-7.13-14.1-10.72-21.14c-2.63-5-5.26-10-7.89-15
		c0.83-2.41,1.18-5.14,2.57-7.16c7.32-10.63,15.04-21,22.35-31.64c3.89-5.66,8.83-11.77,12.01-18.15
		c3.72-4.76,5.69-10.63,8.77-15.82c-5.83,6.97-10.78,14.67-16.26,21.92c-6.96,9.21-13.86,18.46-20.85,27.64
		c-3.75,4.92-7.81,9.61-12.11,14.87c-0.08,0.1-6.92-8.53-7.52-9.46c-2.4-3.69-4.14-7.65-6.91-11.11
		c-7.49-9.37-13.78-19.4-21.49-28.65c-8.22-9.86-17.02-19.24-26.11-28.3c-24.48-24.4-52.01-44.66-82-61.67
		c-4.58-2.6-9.23-5.07-14.34-7.88c1.33-2.32,2.25-4.21,3.43-5.92c7.06-10.21,14.18-20.37,21.27-30.55
		c2.29-3.36,4.58-6.73,6.88-10.09c2.47-3.99,7.79-12.77,7.7-12.84c-0.16,0.23-0.33,0.45-0.49,0.68c-3.02,4-6.04,8-9.06,12
		c-2.33,3.32-4.67,6.64-7,9.96c-8.95,11.45-17.91,22.9-26.89,34.38C516.67,3.7,399.3,2.45,284.74,62.35
		c-114.95,60.1-178.98,158.47-202.39,285.84c-13.73,1.54-28.17,3.16-42.61,4.78c-4.98,0.32-9.96,0.64-14.95,0.96
		c-8.26,0.43-16.53,0.85-24.79,1.28c0,0.09,0.01,0.18,0.01,0.28H24.9l14.86-0.96c13.96-0.77,27.93-1.53,42.24-2.32
		c-0.2,3.53-0.21,6.53-0.57,9.48c-2.45,19.99-3.08,40.03-2.14,60.16c1.52,32.68,6.76,64.72,16.63,95.89
		c4.29,13.55,9.97,26.67,15.02,39.98c1.31,3.76,2.62,7.52,4.13,11.86c-27.94,2.98-54.91,5.85-81.88,8.73
		c1.57,0.56,3.13,0.61,4.69,0.56c10.97-0.35,21.94-0.6,32.89-1.12c8.62-0.41,17.22-1.26,25.83-1.75c7.44-0.43,14.89-0.63,22.33-0.93
		c3.3,6.24,6.6,12.47,9.9,18.71c2.87-1.03,5.74-2.05,8.6-3.08c-2.61-5.3-5.23-10.59-7.84-15.89c1.31-0.65,2.57-1.69,3.94-1.88
		c22.45-3.17,44.93-6.24,67.39-9.34c0.31-0.04,0.59-0.3,0.88-0.45c2.3-0.28,4.62-0.43,6.89-0.87c16.18-3.16,32.39-6.17,48.5-9.66
		c13.23-2.86,26.34-6.31,39.5-9.5c1.47-0.24,2.98-0.34,4.4-0.74c15.89-4.47,31.84-8.74,47.62-13.56c13.1-4,26-8.67,38.99-13.04
		c1.76-0.47,3.57-0.79,5.27-1.44c17.59-6.73,35.22-13.38,52.72-20.33c8.78-3.49,17.33-7.57,25.98-11.39
		c12.91-6.19,26.19-11.73,38.65-18.72c19.42-10.88,38.68-22.14,57.28-34.36c20.24-13.3,39.91-27.51,59.33-41.99
		c24.28-18.11,47.31-37.79,69.13-58.81c15.57-15,31.08-30.12,45.67-46.05c14.92-16.28,28.72-33.6,42.98-50.49
		c2.57-3.04,4.93-6.27,7.56-9.25c0.74-0.84,2.12-1.11,3.21-1.63c2.11,3.83,4.23,7.67,6.34,11.5c7.46,16.94,15.46,33.66,22.24,50.86
		c8.73,22.16,13.9,45.34,17.64,68.85c4.23,26.58,5.11,53.31,3.97,80.15c-0.17,3.96-1,7.39-3.86,10.39
		c-19.48,20.46-38.17,41.74-58.47,61.36c-27.96,27.02-58.46,51.2-90.72,72.89c-22.12,14.88-44.99,28.77-68.28,41.75
		c-26.06,14.53-52.75,27.99-79.58,41.08c-33.75,16.47-68.64,30.26-104.43,41.71c-7.61,2.44-15.15,5.08-22.73,7.63
		c-15.68,4.24-31.29,8.75-47.05,12.65c-15.93,3.95-32.01,7.3-48.03,10.94c-1.29,0.29-2.54,0.74-3.8,1.12
		c-8.25,1.36-16.48,2.84-24.76,4.04c-3.71,0.54-7.5,0.53-11.25,0.77c-20.82-12.66-41.28-25.96-59.39-42.29
		c-13.91-12.54-27.29-25.85-39.52-40.02c-12.51-14.5-23.34-30.46-34.87-45.81c-0.57-0.76-0.85-1.74-1.27-2.62
		c-3.41-5.85-6.81-11.7-10.22-17.54c-2.87,1.03-5.74,2.05-8.6,3.08l10.65,18.02c0.45,1.06,0.74,2.24,1.38,3.17
		c11.71,16.95,23.75,33.62,37.58,48.96c14.75,16.36,30.49,31.69,48.14,44.84c13.4,9.99,27.55,18.97,41.28,28.52
		c1.59,1.1,2.62,3.01,3.91,4.54c-1.78,0.37-3.54,0.88-5.33,1.09c-17.57,2.03-35.15,4.01-52.72,6.01c-9.63,0.63-19.26,1.27-24.7,1.62
		h24.72c1.16,0.03,2.33,0.17,3.48,0.08c20.17-1.52,40.34-3.15,60.52-4.53c2.87-0.2,5.81,0.76,8.72,1.19
		c1.24,0.81,2.39,1.83,3.73,2.41c13.82,6.06,27.42,12.75,41.56,17.92c43.69,15.96,88.83,24.09,135.47,23.51
		c20.63-0.26,41.11-1.8,61.41-5.53l12.66-2.52c-11.58,2.3-23.18,2.86-34.93,3.54c-9.83,0.57-19.68,1.09-29.52,1.41
		c-5.51,0.18-11.03,0.25-16.55,0.1c-14.42-0.38-28.81-1.6-43.09-3.57c-31.51-4.34-62.01-12.65-91.39-24.86
		c-8.72-3.62-17.21-7.81-25.73-11.89c-1.46-0.7-4.52-0.95-2.47-4.03c5.36-0.69,10.71-1.39,16.07-2.08
		c7.45-1.29,14.89-2.63,22.35-3.85c10.62-1.72,21.31-3.05,31.86-5.09c11.99-2.33,23.86-5.26,35.79-7.93
		c1.15-0.13,2.34-0.13,3.44-0.43c18.66-5.07,37.36-10.03,55.97-15.3c43.91-12.43,86.21-29.18,127.35-48.78
		c27.3-13.01,52.96-29.05,77.68-46.4c20.1-14.11,39.64-29.07,58.93-44.29c22.74-17.95,43.87-37.8,63.68-58.91
		c16.6-17.7,32.17-36.36,48.22-54.57c1.1-1.25,2.47-2.26,4.61-4.19c0,2.47,0.13,3.59-0.02,4.68c-2.73,19.71-6.04,39.31-11.9,58.38
		c-3.55,11.53-7.44,22.96-11.17,34.44c-3.06,7.08-6.11,14.16-9.17,21.24c-7.07,16.38-16.3,32.6-26.14,47.58
		c2.36-2.58,4.84-5.29,6.61-8.32c1.43-2.17,2.86-4.35,4.3-6.52c0.07,0.04,0.14,0.07,0.22,0.11c5.59-10.85,11.18-21.7,16.77-32.55
		l8.46-19.27c0.82-1.81,1.72-3.6,2.45-5.45c12.53-31.66,20.72-64.4,24.8-98.22c0.41-3.42,2.03-6.98,3.98-9.88
		c7.11-10.59,14.6-20.93,21.95-31.36c2.73-3.99,5.47-7.97,8.2-11.96c2.52-3.68,5.23-7.25,7.51-11.07c2.79-4.67,5.26-9.53,7.85-14.33
		c-5.91,8.42-11.83,16.84-17.74,25.25L873.15,404.95z M265.12,94.88c113.97-73.37,234.38-79.42,358.7-29.67
		c0.28,0.56,0.55,1.12,0.83,1.67c-2.9,3.46-5.55,7.15-8.73,10.33c-19.07,19.04-37.88,38.37-57.53,56.8
		c-23.74,22.28-49.89,41.64-76.87,59.83c-21.73,14.65-44,28.41-67.3,40.46c-20.66,10.68-41.12,21.78-62.02,31.98
		c-33.64,16.42-68.22,30.71-103.95,41.96c-22.49,7.08-45.1,13.92-68,19.48c-26.47,6.42-53.31,11.32-79.99,16.86
		c-0.29,0.06-0.63-0.09-2.26-0.37C119.05,237.42,174.09,153.48,265.12,94.88z M777.83,228.44c-10.1,11.04-20.09,22.2-30.62,32.82
		c-14.11,14.22-28.28,28.45-43.19,41.81c-15.69,14.06-31.77,27.79-48.61,40.44c-23.45,17.62-47.59,34.35-71.79,50.93
		c-11.59,7.94-24.01,14.69-36.05,21.97c-7.15,3.83-14.27,7.72-21.46,11.48c-22.3,11.67-44.58,23.38-66.97,34.9
		c-11.04,5.68-22.28,10.97-33.42,16.44c-0.48,0.64-0.93,1.32-1.37,2c0.44-0.68,0.9-1.36,1.37-2c-5.6,2.43-11.12,5.08-16.82,7.27
		c-29.68,11.42-59.42,22.72-89.12,34.08c-1.05,0.4-2.01,1.04-3.02,1.56c-1.12,0.23-2.26,0.38-3.35,0.71
		c-21.2,6.27-42.33,12.74-63.6,18.76c-12.6,3.57-25.4,6.45-38.11,9.63c-10.06,1.96-20.11,4-30.19,5.85
		c-17.74,3.25-35.51,6.39-53.27,9.54c-0.62,0.11-1.29-0.09-2.1-0.16c-2.27-4.56-4.52-9.09-6.78-13.62
		c-1.72-5.02-3.38-10.05-5.18-15.04c-12.12-33.73-19.01-68.52-21.31-104.27c-1.38-21.49-0.55-42.91,1.59-64.3
		c0.61-6.08,1.81-12.1,2.78-18.39c9.15-1.15,18.04-2.21,26.92-3.4c36.96-4.97,73.58-11.9,109.52-21.74
		c28.34-7.76,56.43-16.6,84.22-26.18c28.92-9.97,57.17-21.91,84.12-36.42c17.2-9.26,33.63-19.99,50.15-30.47
		c11.47-7.28,22.8-14.85,33.66-23c13.65-10.23,26.81-21.12,40.08-31.85c22.11-17.89,42.56-37.61,61.87-58.43
		c13.43-14.49,25.86-29.9,38.77-44.87c1.38-1.61,2.92-3.08,4.66-4.9c3.94,1.94,7.79,3.53,11.33,5.64
		c15.4,9.18,31.29,17.68,45.88,28.02c13.77,9.77,26.33,21.29,39.03,32.47c15.11,13.3,28.24,28.49,40.35,44.56
		c0.19,0.25,0.54,0.37,0.81,0.55c5.33,7.37,10.67,14.75,16,22.12c1.86,3.44,3.72,6.88,5.78,10.68
		C786.18,218.63,782.17,223.69,777.83,228.44z"/>
	<linearGradient id="SVGID_3_" gradientUnits="userSpaceOnUse" x1="796.5374" y1="202.9918" x2="1001.157" y2="534.127">
		<stop  offset="0" style="stop-color:#2666C9"/>
		<stop  offset="0.9947" style="stop-color:#1B407C"/>
	</linearGradient>
	<path class="st2" d="M898.81,368.64c0.02-0.03,0.03-0.06,0.04-0.08C898.84,368.58,898.83,368.6,898.81,368.64L898.81,368.64
		C899,368.5,898.94,368.54,898.81,368.64z"/>
	<linearGradient id="SVGID_4_" gradientUnits="userSpaceOnUse" x1="865.5306" y1="314.622" x2="932.1662" y2="422.458">
		<stop  offset="0" style="stop-color:#2666C9"/>
		<stop  offset="0.9947" style="stop-color:#1B407C"/>
	</linearGradient>
	<path class="st3" d="M898.85,368.56c0-0.01,0.01-0.02,0.01-0.03C898.85,368.54,898.85,368.55,898.85,368.56z"/>
	<linearGradient id="SVGID_5_" gradientUnits="userSpaceOnUse" x1="858.9948" y1="303.9943" x2="938.7275" y2="433.0255">
		<stop  offset="0" style="stop-color:#2666C9"/>
		<stop  offset="0.9947" style="stop-color:#1B407C"/>
	</linearGradient>
	<path class="st4" d="M898.86,368.53C898.88,368.5,898.88,368.49,898.86,368.53L898.86,368.53z"/>
</g>
</svg>
