<?xml version="1.0" encoding="utf-8"?>
<!-- Generator: Adobe Illustrator 25.3.1, SVG Export Plug-In . SVG Version: 6.00 Build 0)  -->
<svg version="1.1" id="Слой_1" xmlns="http://www.w3.org/2000/svg" xmlns:xlink="http://www.w3.org/1999/xlink" x="0px" y="0px"
	 viewBox="0 0 35.4585114 37.9980965" style="enable-background:new 0 0 35.4585114 37.9980965;" xml:space="preserve">
<style type="text/css">
	.st0{fill:#FE6243;}
	.st1{fill:#EC1E26;}
	.st2{fill:#EC1F26;}
	.st3{fill:#EC1D25;}
	.st4{fill:#EC1C24;}
	.st5{fill:#F44C23;}
	.st6{fill:#FE4F23;}
	.st7{fill:#FD6042;}
	.st8{fill:#FE6042;}
	.st9{fill:#FD5F42;}
	.st10{fill:#FD5F41;}
</style>
<g>
	<path class="st0" d="M24.3053551,8.9397936c1.3199463,0.8240471,2.3887768,1.908226,3.2881451,3.1688948
		c0.0820751,0.1150455,0.1798897,0.2188625,0.2704124,0.3278894c0.2099419,0.3654079,0.4198666,0.7308197,0.629797,1.0962324
		c0.2313519,0.5950584,0.52738,1.1741295,0.6793671,1.7888069c0.2469845,0.9988689,0.3996811,2.0210438,0.5921936,3.03339
		c-0.6245346,0.0000095-1.2490883,0.0000095-1.8740921,0.0000095c0,0.4584751,0,0.8450489,0,1.2744598
		c0.644186,0,1.2590923,0,1.8740005,0c-0.1405239,1.6217976-0.4988422,3.1860485-1.2226276,4.6551609
		c-0.0312824,0.0634937-0.0188789,0.1485043-0.0267944,0.2235222c-0.2189255,0.3515358-0.4378834,0.703043-0.6568413,1.0545483
		c-0.4647903,0.5686378-0.8815746,1.1870155-1.4064217,1.6934242c-0.6678963,0.6444244-1.4232883,1.1981926-2.1409473,1.7910328
		c-0.3196621-0.5189304-0.6393299-1.0378513-0.9746132-1.5821133c-0.260519,0.1445675-0.4898663,0.2950745-0.7376785,0.4033165
		c-0.2926273,0.1278191-0.3153305,0.2836761-0.1625538,0.5489178c0.2462654,0.4275684,0.4593143,0.874258,0.6863956,1.3128719
		c-1.2267456,0.6751537-2.5531368,1.027998-3.9312992,1.2103462c-0.2736416,0.0362053-0.5495834,0.0550499-0.8244591,0.0818882
		c-0.4248009,0.0001545-0.8496113,0.0003185-1.2744198,0.0004826c-1.6690187-0.1186466-3.2706785-0.4854069-4.7533703-1.2901649
		c0.2812376-0.5537128,0.5624228-1.1074429,0.8532448-1.6801472c-0.3491468-0.1939564-0.6984224-0.3879833-1.0593309-0.5884724
		c-0.3463612,0.5489578-0.6700926,1.062048-0.9938231,1.5751381c-1.3285007-0.8022995-2.3805246-1.8931465-3.2814012-3.1420288
		c-0.084023-0.1164818-0.173058-0.2293472-0.2597685-0.3438873C7.3882351,25.1864052,7.1780028,24.8195,6.9677711,24.4525948
		c-0.536129-1.1824684-0.9732857-2.3960438-1.1463161-3.6908207c-0.0502143-0.3757477-0.0858335-0.7534428-0.1281581-1.1302547
		c0.625627-0.0000095,1.2512679-0.0000095,1.8771539-0.0000095c0-0.460598,0-0.8475685,0-1.2224903
		c-0.0539565-0.0216656-0.0776615-0.03932-0.101563-0.0395908c-0.5921021-0.0067253-1.1842241-0.0116158-1.7763433-0.0168304
		c0.1149821-1.6216812,0.5007353-3.1723156,1.2148218-4.637228c0.027967-0.057373,0.0409212-0.1220627,0.0608659-0.1833467
		c0.210115-0.3662186,0.4202342-0.7324324,0.630353-1.0986471c0.7143326-0.8136349,1.3997726-1.6554384,2.1546364-2.4295607
		c0.4050064-0.4153376,0.9293556-0.7143269,1.3998423-1.0658045c0.3203716,0.5206242,0.6407557,1.0412359,0.9779997,1.5892448
		c0.376543-0.2131443,0.7250767-0.4104347,1.0899153-0.6169529c-0.0662479-0.1210356-0.1166039-0.2109518-0.1650419-0.3018894
		c-0.2393236-0.4493074-0.478137-0.8988848-0.7171316-1.3483667c1.2553873-0.6764216,2.6055222-1.0410585,4.0126123-1.2168536
		c0.2479992-0.0309834,0.4970398-0.0536165,0.7455997-0.0801005c0.422823-0.0000229,0.8456478-0.000052,1.2684746-0.0000815
		c1.5862427,0.1320238,3.1165962,0.4795785,4.5544338,1.1825929c0.0704098,0.0344248,0.1361294,0.078433,0.2039814,0.11796
		c-0.2377224,0.4471416-0.4896393,0.887682-0.7028503,1.3462152c-0.0519772,0.1117859-0.0299854,0.3539982,0.0495796,0.4132166
		c0.2575397,0.1916819,0.5576763,0.3261452,0.8683643,0.4975214C23.6704426,9.9783592,23.9878998,9.4590769,24.3053551,8.9397936z
		 M25.9611893,14.7203484c-0.0252876-0.0271349-0.0505791-0.0542717-0.0758667-0.0814066
		c-0.5107498-1.2193785-1.7385712-1.7121115-2.7503624-1.0905333c-0.6702423,0.4117527-1.041954,1.0165234-0.9628716,1.8130541
		c0.0817013,0.8229017,0.573782,1.3584337,1.3356228,1.6547632c0.0271263,0.0253124,0.0542564,0.0506268,0.0813808,0.0759411
		l0.0000038-0.0009022c0.0295143,0.0974159,0.0413132,0.2052078,0.0913506,0.2906036
		c0.4037437,0.6890965,1.1974468,1.0862007,1.9223003,0.9706039c0.7755814-0.1236839,1.4585323-0.793293,1.6145496-1.5830097
		c0.1669331-0.8449831-0.4926186-1.9201498-1.2570076-2.0491056L25.9611893,14.7203484z M16.777647,28.3335876
		c0.2505112,0.7747688,0.8809719,1.1325436,1.5867844,1.3322506c1.3058033,0.3694763,2.668335-0.4194393,3.0714397-1.7218666
		c0.3583221-1.1577282-0.2792358-2.5705299-1.327219-2.9410744c-0.3066425-0.3700218-0.5553894-0.8188877-0.9311714-1.0947533
		c-0.9858208-0.7237167-2.1903973-0.634491-3.1319847,0.1419621c-0.8072405,0.6656685-1.0585098,1.8977966-0.6168022,2.9569626
		C15.693779,27.6427116,16.2077427,28.0138168,16.777647,28.3335876z M11.2393198,18.0444927
		c0.5382395,1.0253639,1.4404688,1.5235043,2.5445938,1.5674591c2.1606569,0.0860252,3.7069769-1.8022842,3.2122259-3.9177551
		c-0.1942558-0.8306036-0.6433678-1.5480442-1.4789162-1.9272165c-0.8206758-1.3344374-1.9766874-1.9496317-3.5558109-1.6577492
		c-1.5619621,0.2887115-2.7223644,2.0417233-2.4182281,3.5903101C9.7507772,16.7565594,10.3320446,17.5101395,11.2393198,18.0444927
		z M19.6045532,19.6087608c0-0.429287,0-0.8159828,0-1.2131634c-0.4230061,0-0.819088,0-1.2073803,0
		c0,0.4241352,0,0.8110523,0,1.2131634C18.8075409,19.6087608,19.1849995,19.6087608,19.6045532,19.6087608z M10.1502867,23.3963108
		c0.4322491,0,0.8189526,0,1.2110405,0c0-0.4242153,0-0.8201141,0-1.2041302c-0.4259539,0-0.8129025,0-1.2110405,0
		C10.1502867,22.6041832,10.1502867,22.9815865,10.1502867,23.3963108z M23.4466,24.6874294
		c0.3789825,0,0.7182541,0.0079441,1.0565147-0.0069599c0.0646896-0.0028534,0.1771812-0.0934353,0.179594-0.1474743
		c0.0161228-0.3609543,0.0083714-0.7229729,0.0083714-1.0767746c-0.45471,0-0.8416405,0-1.2444801,0
		C23.4466,23.8659611,23.4466,24.2433968,23.4466,24.6874294z M19.6051979,10.7933826c-0.4315681,0-0.8183975,0-1.2132816,0
		c0,0.4183016,0,0.8049994,0,1.2108135c0.4145889,0,0.8013153,0,1.2132816,0
		C19.6051979,11.5934305,19.6051979,11.2067156,19.6051979,10.7933826z"/>
	<path class="st1" d="M28.4937077,13.5328102c-0.2099285-0.3654127-0.4198532-0.7308245-0.6297951-1.0962324
		c0.4751453-0.2818565,0.9457493-0.5718718,1.4277763-0.8414669c0.1864586-0.1042862,0.2516422-0.2086983,0.2140999-0.4341383
		c-0.2062645-1.2385616,0.4850063-2.4002962,1.6524124-2.8129187c1.1441097-0.4043884,2.4308529,0.0715628,3.040369,1.1245956
		c0.6065521,1.0479193,0.3776588,2.4049797-0.539238,3.197032c-0.9426155,0.8142624-2.2721882,0.8412437-3.2602062,0.0413599
		c-0.1853752-0.1500778-0.3021221-0.1303778-0.4793854-0.0210686
		C29.4498386,12.9797382,28.9697475,13.2529907,28.4937077,13.5328102z M33.243206,10.7676487
		c0.0023499-0.7015181-0.542244-1.2599783-1.2397003-1.2712564c-0.674654-0.010911-1.3028412,0.6120214-1.291048,1.2802439
		c0.0113392,0.6424932,0.605154,1.2414694,1.2406578,1.251441C32.6737976,12.0393839,33.240799,11.4854183,33.243206,10.7676487z"/>
	<path class="st1" d="M27.8589153,25.5627079c0.2189579-0.3515053,0.4379158-0.7030125,0.6568413-1.0545483
		c0.4583111,0.2575417,0.9243145,0.5026817,1.3716679,0.778101c0.2132607,0.1313019,0.34865,0.1176853,0.54636-0.0432816
		c0.8049812-0.6553822,1.8790817-0.7462578,2.7730446-0.2340603c0.9500542,0.5443382,1.3743401,1.386816,1.2977562,2.4724331
		c-0.0682945,0.9682236-0.7827339,1.8367443-1.7364922,2.1456661c-1.8050976,0.5846577-3.5712166-0.9255714-3.2641582-2.8010082
		c0.0364475-0.2226181-0.0202198-0.3282738-0.2123451-0.4327202C28.8067951,26.129734,28.3355751,25.8412209,27.8589153,25.5627079z
		 M31.967226,25.9565125c-0.6749077,0.0045681-1.260128,0.5979671-1.2547188,1.272253
		c0.0053959,0.6725349,0.6284428,1.2684555,1.3165035,1.259182c0.6571732-0.0088558,1.2107468-0.5819149,1.2142067-1.2569485
		C33.2469101,26.5110817,32.6868057,25.9516411,31.967226,25.9565125z"/>
	<path class="st2" d="M7.5985851,12.4333763c-0.2101188,0.3662148-0.420238,0.7324286-0.630353,1.0986471
		c-0.4533048-0.2672234-0.9166093-0.5192356-1.3559241-0.8077679c-0.2381735-0.1564245-0.387958-0.1303291-0.6121354,0.0425615
		c-1.0744662,0.8286552-2.5781031,0.6619186-3.4497528-0.3571682c-0.8708412-1.0181427-0.7986475-2.5412931,0.1645584-3.471796
		c0.7831911-0.7566013,1.9594918-0.9254684,2.9255991-0.4199953c0.9560723,0.5002232,1.4962263,1.5429688,1.3179417,2.6021814
		c-0.0430098,0.2555265,0.0290823,0.3791847,0.2432299,0.4967127C6.6743956,11.8761454,7.1337862,12.159687,7.5985851,12.4333763z
		 M2.2189355,10.7727146c0.0043385,0.690918,0.5834918,1.2704086,1.2543712,1.2550974
		c0.6758089-0.0154219,1.2710509-0.6023493,1.2763453-1.2585154c0.0052629-0.6523113-0.6046839-1.2695541-1.2578206-1.2728682
		C2.7729547,9.4927826,2.2144151,10.0528107,2.2189355,10.7727146z"/>
	<path class="st2" d="M6.9677701,24.4525948c0.2102327,0.3669052,0.420465,0.7338104,0.6306992,1.1007175
		c-0.4652762,0.2733154-0.924942,0.5569153-1.3983469,0.8153515c-0.216289,0.1180725-0.2821445,0.2440662-0.2407837,0.4979649
		c0.2340121,1.436512-0.8616695,2.7980728-2.3019304,2.8856316c-1.5180681,0.0922871-2.7412329-1.072916-2.7155614-2.5868759
		c0.0247108-1.4573002,1.3152444-2.6388321,2.754941-2.4456043c0.4614415,0.0619297,0.9149413,0.3046913,1.3302317,0.5388985
		c0.2171483,0.1224594,0.3412623,0.1523609,0.5486341,0.0202465C6.0305419,24.9891243,6.5026765,24.7263832,6.9677701,24.4525948z
		 M2.2189455,27.2205296c-0.0008504,0.7186146,0.5617146,1.2750111,1.2816553,1.2675972
		c0.6512461-0.0067081,1.2611251-0.6324596,1.2490401-1.2815495c-0.0122371-0.657196-0.6112771-1.2398624-1.2850256-1.2498989
		C2.7925005,25.9466629,2.2197649,26.5277576,2.2189455,27.2205296z"/>
	<path class="st1" d="M17.0929184,31.0228748c0.4248085-0.000164,0.8496189-0.0003281,1.2744198-0.0004807
		c-0.0009575,0.5539379,0.0072327,1.108099-0.0073051,1.6616688c-0.0059452,0.2263184,0.0520954,0.3342667,0.2849293,0.4249039
		c1.2417164,0.4833755,1.8821716,1.7972221,1.5205212,3.059948c-0.3444633,1.2027245-1.5734406,1.9905396-2.8096828,1.8011055
		c-1.2935982-0.1982193-2.2407179-1.3448639-2.1480236-2.661644c0.0741215-1.0529442,0.6278763-1.8013573,1.610075-2.1964836
		c0.2290649-0.0921516,0.2909031-0.1999321,0.2844238-0.4274445C17.0865059,32.1309509,17.0944977,31.5767765,17.0929184,31.0228748
		z M18.9971046,35.4528809c0.0001354-0.6780434-0.5702114-1.257885-1.2456989-1.2664261
		c-0.6950798-0.0087967-1.2860985,0.5725136-1.2863846,1.2652435c-0.0002842,0.6930084,0.5898056,1.2745667,1.28512,1.2665367
		C18.425209,36.7104416,18.9969692,36.130249,18.9971046,35.4528809z"/>
	<path class="st1" d="M18.3654919,6.9630113c-0.4228268,0.0000296-0.8456516,0.0000587-1.2684746,0.0000815
		c0.0002117-0.5402942-0.0143261-1.0811658,0.0069904-1.6206207c0.0103264-0.2613311-0.0628681-0.3850145-0.3187561-0.4861507
		c-1.1258316-0.4449706-1.7690449-1.6214764-1.5435648-2.764502c0.2432184-1.2329488,1.2487154-2.0846686,2.4694433-2.0917733
		c1.2312908-0.0071662,2.2447281,0.8252906,2.4995632,2.0531921c0.2391071,1.1521127-0.3806648,2.3376739-1.4977436,2.7884853
		c-0.2831059,0.1142502-0.3713989,0.2451849-0.3560638,0.5403519C18.3842049,5.907784,18.3651505,6.4359012,18.3654919,6.9630113z
		 M17.7306271,3.7980781c0.6774025,0.0003774,1.258194-0.5709362,1.2664757-1.2458105
		c0.0085335-0.6951849-0.5727291-1.2857724-1.2656555-1.2859602c-0.6777458-0.0001842-1.2579861,0.5705891-1.2664261,1.2457626
		C16.4563313,3.207103,17.03755,3.7976923,17.7306271,3.7980781z"/>
	<path class="st2" d="M24.3053551,8.9397936c-0.3174553,0.5192833-0.6349125,1.0385656-0.9663544,1.5807238
		c-0.310688-0.1713762-0.6108246-0.3058395-0.8683643-0.4975214c-0.079565-0.0592184-0.1015568-0.3014307-0.0495796-0.4132166
		c0.2132111-0.4585333,0.4651279-0.8990736,0.7028503-1.3462152c0.3646431-0.5719433,0.7292328-1.1439047,1.0895519-1.7091656
		c-0.3863354-0.5517335-0.5718613-1.105855-0.4016476-1.7441778c0.2578888-0.9670911,1.1848927-1.5684674,2.1732082-1.3976192
		c0.9601879,0.1659865,1.6547527,1.092628,1.5527992,2.0716267c-0.1057377,1.015336-0.9556274,1.7425947-1.9772243,1.7054543
		c-0.1112881-0.004046-0.2832832,0.030643-0.3286591,0.1063595C24.9087257,7.8353596,24.6111145,8.3900185,24.3053551,8.9397936z
		 M26.2769585,5.2577939c-0.0054016-0.3342938-0.3013954-0.6011376-0.6542149-0.5897832
		c-0.3369865,0.0108442-0.6077003,0.2755418-0.6090755,0.5955405c-0.0013828,0.3211322,0.352644,0.6809039,0.6543331,0.6649556
		C25.961731,5.9129796,26.281847,5.5603986,26.2769585,5.2577939z"/>
	<path class="st1" d="M11.1396389,29.0392284c0.3237305-0.5130901,0.6474619-1.0261803,0.9938231-1.5751381
		c0.3609085,0.200489,0.7101841,0.394516,1.0593309,0.5884724c-0.290822,0.5727043-0.5720072,1.1264343-0.8532448,1.6801472
		c-0.3664751,0.5677147-0.7328968,1.1354427-1.0923967,1.6924458c0.3783131,0.5471382,0.566349,1.087635,0.409543,1.7128639
		c-0.2489185,0.9925041-1.1666775,1.6024437-2.1802111,1.4368477c-0.943778-0.1541939-1.6235795-1.0381241-1.557786-2.025547
		c0.0643883-0.9663448,0.9120235-1.7648048,1.9043636-1.7378139c0.292264,0.0079479,0.4248419-0.0886917,0.5431538-0.3207569
		C10.6151838,30.0024033,10.8808346,29.5225601,11.1396389,29.0392284z M10.4476795,32.6998863
		c-0.0107641-0.310215-0.3568258-0.6557999-0.6352034-0.6343231c-0.3389635,0.0261497-0.6468048,0.3637619-0.6267309,0.6873398
		c0.0198784,0.3204575,0.2993279,0.5679474,0.6370745,0.5642128C10.1770687,33.3131943,10.4592876,33.03442,10.4476795,32.6998863z"
		/>
	<path class="st2" d="M12.3388052,8.260047c0.2389946,0.449482,0.477808,0.8990593,0.7171316,1.3483667
		c0.0484381,0.0909376,0.098794,0.1808538,0.1650419,0.3018894c-0.3648386,0.2065182-0.7133722,0.4038086-1.0899153,0.6169529
		c-0.337244-0.5480089-0.6576281-1.0686207-0.9779997-1.5892458c-0.3039913-0.5506248-0.5998011-1.1061139-0.9214649-1.6462083
		c-0.0445442-0.074791-0.2178545-0.105804-0.3298941-0.1024041C8.8327904,7.2218361,7.930222,6.3715968,7.9187193,5.309279
		c-0.01162-1.0730653,0.8538799-1.9287331,1.9367371-1.9147348c1.0558205,0.0136487,1.9083557,0.890913,1.8440819,1.950614
		c-0.0191412,0.3155937-0.1468887,0.6384616-0.2870617,0.9278846c-0.090416,0.1866865-0.1289892,0.3117914-0.0099945,0.493793
		C11.7239208,7.2584734,12.0278997,7.7615237,12.3388052,8.260047z M10.448184,5.2725143
		c0.0040808-0.3349686-0.284647-0.6079941-0.6389933-0.6042438C9.4718208,4.6718411,9.1962862,4.9282384,9.1855059,5.2486358
		C9.1747684,5.5677609,9.5187798,5.9337196,9.8244343,5.9283242C10.1156969,5.923183,10.4444685,5.5775127,10.448184,5.2725143z"/>
	<path class="st2" d="M23.1230965,29.7301579c-0.2270813-0.4386139-0.4401302-0.8853035-0.6863956-1.3128719
		c-0.1527767-0.2652416-0.1300735-0.4210987,0.1625538-0.5489178c0.2478123-0.108242,0.4771595-0.258749,0.7376785-0.4033165
		c0.3352833,0.5442619,0.6549511,1.0631828,0.9746132,1.5821152c0.3043346,0.551012,0.5984535,1.1081963,0.9239368,1.6464138
		c0.0493412,0.0815983,0.244379,0.1044006,0.3721237,0.1046524c0.984148,0.0019398,1.8182163,0.7272415,1.9292221,1.6911278
		c0.1093369,0.94944-0.5210819,1.8400574-1.4619427,2.0653381c-0.9152412,0.2191429-1.860199-0.2889595-2.2001915-1.1830406
		c-0.2355766-0.6194954-0.1587772-1.100708,0.332655-1.955349C23.8556614,30.8693886,23.489378,30.2997723,23.1230965,29.7301579z
		 M26.2770901,32.7186775c0.0002823-0.3038216-0.32477-0.6528397-0.6171722-0.6626778
		c-0.3041878-0.010231-0.6522255,0.3523216-0.6460495,0.6729927c0.0061722,0.3203316,0.2793579,0.5804405,0.6170101,0.5874786
		C25.9834652,33.3238182,26.2767792,33.0524826,26.2770901,32.7186775z"/>
	<path class="st3" d="M5.6925445,18.3525982c0.5921192,0.0052147,1.1842413,0.0101051,1.7763433,0.0168304
		c0.0239015,0.0002708,0.0476065,0.0179253,0.101563,0.0395908c0,0.3749218,0,0.7618923,0,1.2224903
		c-0.625886,0-1.2515268,0-1.8771544,0.0000095c-0.6579151,0.0000076-1.3158445,0.0000076-1.9674757,0.0000076
		c-0.6708302,1.0857944-1.4466972,1.4634724-2.3971705,1.1739655c-0.8273342-0.2519989-1.3664392-1.0371647-1.3265803-1.9320679
		c0.038024-0.8537064,0.6816002-1.5781422,1.5564499-1.7520084c0.8675352-0.172411,1.6645044,0.2804031,2.1358519,1.2311821
		C4.352047,18.3525982,5.0222955,18.3525982,5.6925445,18.3525982z M2.5347083,18.9851589
		c-0.0035715-0.3521919-0.267926-0.6188946-0.6198812-0.6253834c-0.3680156-0.0067863-0.6489689,0.2716217-0.6451715,0.6393261
		c0.0037881,0.3667965,0.2912905,0.6396484,0.6591932,0.6256027C2.2790909,19.6113319,2.5382836,19.3377285,2.5347083,18.9851589z"
		/>
	<path class="st3" d="M29.7651787,19.6294765c-0.6149082,0-1.2298145,0-1.8740005,0c0-0.4294109,0-0.8159847,0-1.2744598
		c0.6250038,0,1.2495575,0,1.8740921-0.0000095c0.5803089,0.0013313,1.1608868-0.0065689,1.7408314,0.0090561
		c0.201107,0.0054169,0.2930374-0.0665684,0.3863029-0.2411175c0.4450436-0.8328953,1.3274059-1.204195,2.2045498-0.9500732
		c0.832634,0.2412243,1.3992271,1.0383968,1.3596001,1.9128838c-0.0397301,0.8767014-0.6888657,1.6024666-1.585701,1.7728863
		c-0.7689552,0.146122-1.5796394-0.2523155-1.9785709-0.9967918c-0.0927982-0.1731777-0.184185-0.247179-0.386261-0.2415562
		C30.9261036,19.6364288,30.3455086,19.6281548,29.7651787,19.6294765z M34.1924324,18.9868736
		c-0.0024872-0.3520317-0.2662811-0.6196423-0.6181602-0.6271019c-0.367878-0.0078011-0.6498413,0.2701035-0.6468964,0.6375885
		c0.0028229,0.3523483,0.2666397,0.6201515,0.6179924,0.6273384C33.9134331,19.632225,34.195034,19.3546486,34.1924324,18.9868736z"
		/>
	<path class="st4" d="M11.2393198,18.0444927c-0.9072752-0.5343533-1.4885426-1.2879333-1.6961355-2.3449516
		c-0.3041363-1.5485868,0.856266-3.3015985,2.4182281-3.5903101c1.5791235-0.2918825,2.7351351,0.3233118,3.5557899,1.6577721
		c0.0235672,0.0744934,0.041379,0.1513948,0.0715799,0.2230778c0.7723036,1.833065-0.36586,3.9201574-2.3155127,4.304574
		C12.5518293,18.4369011,11.8971977,18.2892704,11.2393198,18.0444927z"/>
	<path class="st4" d="M16.777647,28.3335876c-0.5699043-0.3197708-1.083868-0.690876-1.3489532-1.326519
		c-0.4417076-1.059166-0.1904383-2.2912941,0.6168022-2.9569626c0.9415874-0.776453,2.1461639-0.8656788,3.1319847-0.1419621
		c0.375782,0.2758656,0.6245289,0.7247314,0.9311409,1.0947914c0.0102482,0.051075,0.0181751,0.1027203,0.0311451,0.1530647
		c0.3489513,1.3547134-0.1483135,2.476757-1.3435631,3.0834675C18.13064,28.5773067,17.4603386,28.5161457,16.777647,28.3335876z"/>
	<path class="st4" d="M23.5077114,17.0162258c-0.7618408-0.2963295-1.2539215-0.8318615-1.3356228-1.6547632
		c-0.0790825-0.7965307,0.2926292-1.4013014,0.9628716-1.8130541c1.0117912-0.6215782,2.2396126-0.1288452,2.7503433,1.0905361
		c0.02528,0.0271358,0.0505829,0.0542698,0.0758858,0.0814037c0,0-0.0009003,0.0000086-0.0008812-0.0000048
		c0.0151901,0.486269,0.0166683,0.9665585-0.2510281,1.406251c-0.4902668,0.8052597-1.2314644,1.0431614-2.1201839,0.9646702
		c0,0-0.0000038,0.0009022-0.0000134,0.0009079C23.5619526,17.0668583,23.534832,17.0415421,23.5077114,17.0162258z"/>
	<path class="st5" d="M11.2393198,18.0444927c0.6578779,0.2447777,1.3125095,0.3924084,2.0339499,0.2501621
		c1.9496527-0.3844166,3.0878162-2.471509,2.3155127-4.304574c-0.030201-0.0716829-0.0480127-0.1485844-0.0715799-0.2230778
		c0.8355694,0.3791494,1.2846813,1.09659,1.4789371,1.9271936c0.494751,2.1154709-1.051569,4.0037804-3.2122259,3.9177551
		C12.6797886,19.567997,11.7775593,19.0698566,11.2393198,18.0444927z"/>
	<path class="st5" d="M16.777647,28.3335876c0.6826916,0.1825581,1.352993,0.2437191,2.0185566-0.09412
		c1.1952496-0.6067104,1.6925144-1.728754,1.3435631-3.0834675c-0.01297-0.0503445-0.0208969-0.1019897-0.0311451-0.1530647
		c1.0480137,0.3705063,1.6855717,1.783308,1.3272495,2.9410362c-0.4031048,1.3024273-1.7656364,2.0913429-3.0714397,1.7218666
		C17.6586189,29.4661312,17.0281582,29.1083565,16.777647,28.3335876z"/>
	<path class="st5" d="M23.5890961,17.0912647c0.8887196,0.0784912,1.6299171-0.1594105,2.1201839-0.9646702
		c0.2676964-0.4396925,0.2662182-0.919982,0.2510281-1.406251c0.76437,0.1289692,1.4239216,1.2041359,1.2569885,2.049119
		c-0.1560173,0.7897167-0.8389683,1.4593258-1.6145496,1.5830097c-0.7248535,0.1155968-1.5185566-0.2815075-1.9223003-0.9706039
		C23.6304092,17.2964725,23.6186104,17.1886806,23.5890961,17.0912647z"/>
	<path class="st4" d="M19.6045532,19.6087608c-0.4195538,0-0.7970123,0-1.2073803,0c0-0.4021111,0-0.7890282,0-1.2131634
		c0.3882923,0,0.7843742,0,1.2073803,0C19.6045532,18.792778,19.6045532,19.1794739,19.6045532,19.6087608z"/>
	<path class="st4" d="M10.1502867,23.3963108c0-0.4147243,0-0.7921276,0-1.2041302c0.398138,0,0.7850866,0,1.2110405,0
		c0,0.384016,0,0.7799149,0,1.2041302C10.9692392,23.3963108,10.5825357,23.3963108,10.1502867,23.3963108z"/>
	<path class="st4" d="M23.4466,24.6874294c0-0.4440327,0-0.8214684,0-1.2312088c0.4028397,0,0.7897701,0,1.2444801,0
		c0,0.3538017,0.0077515,0.7158203-0.0083714,1.0767746c-0.0024128,0.054039-0.1149044,0.1446209-0.179594,0.1474743
		C24.164854,24.6953735,23.8255825,24.6874294,23.4466,24.6874294z"/>
	<path class="st4" d="M19.6051979,10.7933826c0,0.4133329,0,0.8000479,0,1.2108135c-0.4119663,0-0.7986927,0-1.2132816,0
		c0-0.4058142,0-0.7925119,0-1.2108135C18.7868004,10.7933826,19.1736298,10.7933826,19.6051979,10.7933826z"/>
	<path class="st5" d="M23.5077114,17.0162258c0.0271206,0.0253162,0.0542412,0.0506325,0.0813713,0.0759468
		C23.5619678,17.0668526,23.5348377,17.0415382,23.5077114,17.0162258z"/>
	<path class="st5" d="M25.9611893,14.7203484c-0.0253029-0.0271339-0.0506058-0.0542679-0.0758858-0.0814037
		C25.9106102,14.6660767,25.9359016,14.6932135,25.9611893,14.7203484z"/>
	<path class="st6" d="M33.243206,10.7676487c-0.0024071,0.7177696-0.5694084,1.2717352-1.2900906,1.2604284
		c-0.6355038-0.0099716-1.2293186-0.6089478-1.2406578-1.251441c-0.0117931-0.6682224,0.616394-1.2911549,1.291048-1.2802439
		C32.7009621,9.5076704,33.2455559,10.0661306,33.243206,10.7676487z"/>
	<path class="st6" d="M31.967226,25.9565125c0.7195797-0.0048714,1.2796841,0.5545692,1.2759914,1.2744865
		c-0.0034599,0.6750336-0.5570335,1.2480927-1.2142067,1.2569485c-0.6880608,0.0092735-1.3111076-0.586647-1.3165035-1.259182
		C30.707098,26.5544796,31.2923183,25.9610806,31.967226,25.9565125z"/>
	<path class="st6" d="M2.2189355,10.7727146c-0.0045204-0.7199039,0.5540192-1.279932,1.2728958-1.2762861
		c0.6531367,0.003314,1.2630835,0.6205568,1.2578206,1.2728682c-0.0052943,0.6561661-0.6005363,1.2430935-1.2763453,1.2585154
		C2.8024273,12.0431232,2.223274,11.4636326,2.2189355,10.7727146z"/>
	<path class="st6" d="M2.2189455,27.2205296c0.0008194-0.6927719,0.573555-1.2738667,1.2456698-1.2638512
		c0.6737485,0.0100365,1.2727885,0.5927029,1.2850256,1.2498989c0.012085,0.6490898-0.5977941,1.2748413-1.2490401,1.2815495
		C2.7806602,28.4955406,2.2180951,27.9391441,2.2189455,27.2205296z"/>
	<path class="st6" d="M18.9971046,35.4528809c-0.0001354,0.6773682-0.5718956,1.2575607-1.2469635,1.2653542
		c-0.6953144,0.0080299-1.2854042-0.5735283-1.28512-1.2665367c0.0002861-0.6927299,0.5913048-1.2740402,1.2863846-1.2652435
		C18.4268932,34.1949959,18.9972401,34.7748375,18.9971046,35.4528809z"/>
	<path class="st6" d="M17.7306271,3.7980781c-0.6930771-0.0003858-1.2742958-0.590975-1.2656059-1.2860081
		c0.00844-0.6751735,0.5886803-1.2459468,1.2664261-1.2457626c0.6929264,0.0001878,1.274189,0.5907753,1.2656555,1.2859602
		C18.988821,3.2271419,18.4080296,3.7984555,17.7306271,3.7980781z"/>
	<path class="st7" d="M26.2769585,5.2577939c0.0048885,0.3026047-0.3152275,0.6551857-0.6089573,0.6707129
		c-0.3016891,0.0159483-0.6557159-0.3438234-0.6543331-0.6649556c0.0013752-0.3199987,0.272089-0.5846963,0.6090755-0.5955405
		C25.975563,4.6566563,26.2715569,4.9235001,26.2769585,5.2577939z"/>
	<path class="st8" d="M10.4476795,32.6998863c0.0116081,0.3345337-0.2706108,0.613308-0.6248598,0.6172295
		c-0.3377466,0.0037346-0.6171961-0.2437553-0.6370745-0.5642128c-0.0200739-0.3235779,0.2877674-0.66119,0.6267309-0.6873398
		C10.0908537,32.0440865,10.4369154,32.3896713,10.4476795,32.6998863z"/>
	<path class="st7" d="M10.448184,5.2725143c-0.0037155,0.3049984-0.3324871,0.6506686-0.6237497,0.6558099
		C9.5187798,5.9337196,9.1747684,5.5677609,9.1855059,5.2486358c0.0107803-0.3203974,0.286315-0.5767946,0.6236849-0.5803652
		C10.163537,4.6645203,10.4522648,4.9375458,10.448184,5.2725143z"/>
	<path class="st9" d="M26.2770901,32.7186775c-0.0003109,0.3338051-0.2936249,0.6051407-0.6462116,0.5977936
		c-0.3376522-0.0070381-0.6108379-0.2671471-0.6170101-0.5874786c-0.006176-0.3206711,0.3418617-0.6832237,0.6460495-0.6729927
		C25.9523201,32.0658379,26.2773724,32.414856,26.2770901,32.7186775z"/>
	<path class="st10" d="M2.5347083,18.9851589c0.0035753,0.3525696-0.2556174,0.626173-0.6058595,0.6395454
		c-0.3679026,0.0140457-0.655405-0.2588062-0.6591932-0.6256027c-0.0037974-0.3677044,0.2771559-0.6461124,0.6451715-0.6393261
		C2.2667823,18.3662643,2.5311368,18.632967,2.5347083,18.9851589z"/>
	<path class="st10" d="M34.1924324,18.9868736c0.0026016,0.367775-0.2789993,0.6453514-0.6470642,0.637825
		c-0.3513527-0.0071869-0.6151695-0.2749901-0.6179924-0.6273384c-0.0029449-0.367485,0.2790184-0.6453896,0.6468964-0.6375885
		C33.9261513,18.3672314,34.1899452,18.6348419,34.1924324,18.9868736z"/>
</g>
</svg>
